Coordinates
version=1
nRows=7
nColumns=40
inDegrees=yes

Units are S.I. units (second, meters, Newtons, ...)
Angles are in degrees.

endheader
time	pelvis_tilt	pelvis_list	pelvis_rotation	pelvis_tx	pelvis_ty	pelvis_tz	hip_flexion_r	hip_adduction_r	hip_rotation_r	knee_angle_r	knee_angle_r_beta	ankle_angle_r	subtalar_angle_r	mtp_angle_r	hip_flexion_l	hip_adduction_l	hip_rotation_l	knee_angle_l	knee_angle_l_beta	ankle_angle_l	subtalar_angle_l	mtp_angle_l	lumbar_extension	lumbar_bending	lumbar_rotation	arm_flex_r	arm_add_r	arm_rot_r	elbow_flex_r	pro_sup_r	wrist_flex_r	wrist_dev_r	arm_flex_l	arm_add_l	arm_rot_l	elbow_flex_l	pro_sup_l	wrist_flex_l	wrist_dev_l
     13.57000000	     -4.77037340	     -3.55075159	      2.03230264	      1.02963818	      0.92405127	      0.44633457	     15.66319646	     -8.49817751	     -9.09384442	     56.41843963	     56.41843963	      3.07793692	    -18.64250551	      7.51053398	     17.45802066	     -0.88246785	      0.65369280	     28.12068203	     28.12068203	     17.07312875	    -17.06995596	      8.27379450	     -9.71841797	      5.41910973	      3.74541672	     10.30338741	    -16.26918772	    -13.63211275	     30.38968656	     46.08403853	      0.00000000	      0.00000000	     12.70842647	    -16.78840543	     -3.25529041	     54.18830031	     46.31360184	      0.00000000	      0.00000000
     13.58950000	     -4.39827374	     -3.68030813	      1.58649563	      1.02765229	      0.92307251	      0.44483235	     17.04493259	     -8.32681847	     -8.53489405	     58.14501332	     58.14501332	      3.64732260	    -18.83593326	      7.11925981	     16.90010642	     -0.96613650	      0.53376602	     28.50942880	     28.50942880	     17.70902017	    -17.32159332	      8.10280658	    -10.10453949	      5.83562907	      2.95031785	      8.19637458	    -15.49854302	    -13.61880501	     29.49693416	     46.10206985	      0.00000000	      0.00000000	     13.98544159	    -17.88798965	     -3.69102280	     54.87606577	     46.37242439	      0.00000000	      0.00000000
     13.60900000	     -4.44645615	     -3.57666252	      0.97846890	      1.02512121	      0.92118036	      0.44350232	     19.20487639	     -8.31953711	     -7.69585959	     60.12388220	     60.12388220	      5.08768038	    -18.87327393	      9.29939392	     17.05633141	     -0.84321626	      0.10683864	     29.39196731	     29.39196731	     18.82616130	    -17.38819991	      9.06445179	    -10.17008273	      5.86343667	      3.31165007	      5.18075439	    -15.09117601	    -14.24219082	     28.40117951	     46.18034851	      0.00000000	      0.00000000	     15.32868007	    -18.32982921	     -4.39380210	     58.47876723	     46.52573314	      0.00000000	      0.00000000
     13.62850000	     -4.30233416	     -3.58021696	      0.39972830	      1.02268433	      0.91984100	      0.44240374	     20.99372072	     -8.13274384	     -7.03026729	     61.54355825	     61.54355825	      6.42535342	    -18.93516563	     11.37656871	     16.85280030	     -0.82001357	     -0.15878493	     29.99142543	     29.99142543	     19.75995347	    -17.60124689	      9.77379481	    -10.41460382	      6.05951187	      3.12745836	      2.58883711	    -14.51359713	    -14.81460705	     27.76810148	     46.24120209	      0.00000000	      0.00000000	     16.87243303	    -19.02270123	     -5.04168643	     60.33876248	     46.66569975	      0.00000000	      0.00000000
     13.64800000	     -4.20079174	     -3.56359727	     -0.24394930	      1.02019234	      0.91860382	      0.44157150	     22.67780859	     -7.99388029	     -6.54970382	     62.35829723	     62.35829723	      7.23741773	    -19.04306771	     11.43485442	     16.61319388	     -0.81149608	     -0.55246347	     30.41084082	     30.41084082	     20.30377356	    -17.84408581	      9.70084001	    -10.60336376	      6.22604747	      2.98333939	      0.26816598	    -14.04323394	    -14.86351496	     26.80852477	     46.26784662	      0.00000000	      0.00000000	     18.62783002	    -19.74811155	     -5.56874635	     61.60465589	     46.74752421	      0.00000000	      0.00000000
     13.66750000	     -4.07365394	     -3.63332963	     -0.95019036	      1.01771072	      0.91786195	      0.44127478	     24.25099215	     -7.60013651	     -6.05887810	     62.63980545	     62.63980545	      8.72387360	    -19.10193279	     13.76653053	     16.27226122	     -0.93575161	     -0.98105035	     30.71127818	     30.71127818	     21.07034015	    -17.96205437	     10.39056747	    -10.88552573	      6.44278297	      3.02508054	     -2.17682545	    -13.55888712	    -15.45426150	     26.61258306	     46.31678732	      0.00000000	      0.00000000	     20.24146451	    -20.43507385	     -6.09832358	     63.39366529	     46.87338845	      0.00000000	      0.00000000
     13.68700000	     -4.01300989	     -3.67981423	     -1.71332709	      1.01515468	      0.91741611	      0.44136138	     25.68131961	     -7.24477837	     -5.75210534	     62.15193646	     62.15193646	      9.51777505	    -19.16026258	     13.77299856	     15.89390084	     -1.07894520	     -1.52560835	     30.77359848	     30.77359848	     21.46646166	    -18.09271030	     10.38076763	    -11.09044097	      6.60940920	      2.96812441	     -4.05339077	    -13.14865783	    -15.50183034	     25.86232004	     46.33899245	      0.00000000	      0.00000000	     21.91686565	    -21.14175133	     -6.59594985	     64.56928116	     46.94854992	      0.00000000	      0.00000000
